<svg width="83" height="96" fill="none" xmlns="http://www.w3.org/2000/svg"><path d="M50.946 23.154c.128.563.228 1.026.337 1.485.11.46.393.664.785.622.393-.042.66-.36.626-.825a50.646 50.646 0 00-.224-2.559.834.834 0 01.236-.74c1.499-1.666 3-3.333 4.475-5.019 1.01-1.148 1.644-2.46 1.446-4.03-.161-1.288-.83-2.355-1.625-3.354-.284-.356-.588-.694-.889-1.039l.075-.11c1.34.715 2.72 1.368 4.01 2.158 8.29 5.078 13.676 12.249 16.087 21.508a32.626 32.626 0 01.814 11.882c-.726 6.653-3.387 12.964-7.67 18.189-4.284 5.224-10.01 9.144-16.503 11.297a34.628 34.628 0 01-11.54 1.818c-4.948-.073-8.646-2.27-11.165-6.387-1.498-2.45-2.283-5.142-2.73-7.939-.95-5.912-.022-11.56 2.481-16.993.144-.314.279-.383.626-.297 1.509.34 2.772 0 3.834-1.19a3811.243 3811.243 0 0116.147-18.1c.098-.11.206-.21.367-.377zm7.298-4.044c.118.147.196.258.29.363a41.866 41.866 0 014.856 7.181c.196.352.123.519-.179.743a25.368 25.368 0 01-4.622 2.712c-.714.321-1.442.618-2.158.926l-1.408-4.555a9.45 9.45 0 01-.981.871c-.288.191-.332.35-.228.672.379 1.148.712 2.327 1.08 3.542-.695.192-1.321.383-1.953.548a41.09 41.09 0 01-6.99 1.16.74.74 0 00-.433.12c-.465.484-.903.992-1.425 1.577a42.336 42.336 0 0011.089-1.824.55.55 0 01.05.1 53.57 53.57 0 011.136 10.607c0 .26-.12.327-.343.383a50.962 50.962 0 01-10.594 1.722c-.947.058-1.9 0-2.907 0v-9.09a8.28 8.28 0 00-1.31 1.34c-.167.209-.265.46-.281.724-.022 2.203-.012 4.402-.012 6.609v.495a2.483 2.483 0 01-.296.018c-1.997-.165-3.998-.297-5.991-.513a5.87 5.87 0 00-2.08.11.451.451 0 00-.269.211c-.121.259-.208.534-.325.848 2.974.592 5.946.816 8.93.923V57.98a64.189 64.189 0 01-10.986-1.127v1.589c3.647.733 7.308 1.016 10.986 1.125v6.963a64.8 64.8 0 01-8.819-.781c.352.562.738 1.104 1.156 1.62.113.103.26.162.414.167 1.746.17 3.492.337 5.24.486.665.058 1.334.073 2.01.108v1.46c-1.039-.082-2.053-.132-3.06-.25-1.006-.12-2.016-.31-3.139-.487 1.647 1.305 3.38 2.169 5.433 2.253a32.91 32.91 0 0013.903-2.404c10.986-4.473 18.684-14.546 19.861-26.02a30.843 30.843 0 00-.865-11.273C71.373 25.273 68.1 20.088 63.3 15.816c-.634-.56-1.307-1.08-2.01-1.656-.474 2.014-1.677 3.509-3.046 4.95zM13.143 60.851c-.392-.514-.714-.934-1.024-1.368A34.06 34.06 0 016.14 45C3.588 29.314 12.36 13.75 27.27 7.484A36.548 36.548 0 0139.446 4.64c.238-.035.457-.148.62-.32 1.163-1.196 2.433-2.249 3.99-2.932a5.131 5.131 0 014.19-.029c1.692.697 3.052 1.819 4.254 3.141-.722-.438-1.428-.903-2.172-1.305-1.067-.574-2.2-.957-3.45-.877-1.544.102-2.702.907-3.685 1.985-1.489 1.634-2.942 3.298-4.433 4.93-.187.19-.435.313-.703.347-.828.076-1.66.093-2.49.132-.572.025-.913.29-.915.716-.002.424.304.667.867.72.42.04.843.06 1.265.093.026 0 .051.029.108.065-.084.107-.163.218-.251.318-5.344 5.983-10.665 11.986-16.05 17.933-1.283 1.416-1.428 2.856-.643 4.465.196.416.143.65-.143.99-2.886 3.428-4.69 7.376-5.778 11.657-1.028 4.039-1.303 8.144-1.032 12.288.02.306.055.61.079.914.023.305.045.578.068.98z" fill="#FCFCFC"/><path d="M36.307 15.902c1.09-1.891 2.18-3.761 3.25-5.64.157-.273.328-.202.544-.127a17.828 17.828 0 014.094 2.105c2.692 1.826 5.032 3.998 6.83 6.678.221.333.415.681.615 1.028.064.124.12.252.17.382l-5.494 4.088a41.575 41.575 0 00-10.01-8.514zM26.888 26.14c2.42 3.898 6.023 6.965 10.311 8.773-.318.556-.633 1.11-.945 1.663-.54.957-1.085 1.893-1.605 2.85a.536.536 0 01-.251.279.558.558 0 01-.377.05c-2.009-.191-3.757-1.02-5.377-2.128-2.382-1.627-4.418-3.568-5.67-6.178a11.726 11.726 0 01-.588-1.734.386.386 0 01.092-.35 1230.93 1230.93 0 014.41-3.225zm8.532-6.803c.22.086.43.194.626.322 2.156 1.822 4.306 3.649 6.453 5.481.482.413.508.836.09 1.315a93.82 93.82 0 01-1.67 1.866c-.416.452-.843.488-1.308.094a1639.706 1639.706 0 01-6.447-5.49c-.455-.382-.478-.841-.094-1.28.551-.628 1.097-1.257 1.672-1.864.208-.173.435-.322.678-.444zM24.16 81.718c1.45.559 2.836 1.074 4.203 1.633.37.164.709.39.999.67 1.134 1.058.741 2.68-.75 3.175-.086.029-.172.065-.29.109.532.53.87 1.114.718 1.86-.243 1.187-1.177 1.893-2.397 1.637-1.107-.234-2.176-.647-3.251-1.007-.69-.232-1.373-.51-2.095-.783l2.864-7.294zm.046 4.85l-.71 1.826c.657.25 1.26.503 1.88.706.36.142.745.211 1.133.205a.993.993 0 00.403-.167.963.963 0 00.288-.321 1.247 1.247 0 00-.067-.886 1.079 1.079 0 00-.57-.448c-.76-.318-1.535-.6-2.357-.915zm.475-1.192c.784.273 1.497.56 2.24.765a.903.903 0 00.974-.237.857.857 0 00.176-.299c.172-.43.035-.844-.489-1.096-.708-.343-1.453-.605-2.21-.915-.24.628-.458 1.177-.691 1.782zm49.856-17.068c0-2.427 2.03-4.525 4.37-4.52a4.155 4.155 0 012.894 1.174A3.954 3.954 0 0183 67.784c-.016 2.393-2.048 4.498-4.35 4.498a4.16 4.16 0 01-2.897-1.16 3.958 3.958 0 01-1.216-2.815zm6.817-.281c0-1.315-1.248-2.488-2.668-2.488-1.342-.014-2.517 1.161-2.517 2.514 0 1.323 1.303 2.517 2.723 2.498 1.33-.025 2.462-1.183 2.462-2.524zm-64.991 9.531c2.405.013 4.608 2.105 4.578 4.352-.03 2.172-1.903 3.994-4.09 3.975-2.427-.02-4.61-2.076-4.604-4.335a3.996 3.996 0 011.222-2.816 4.198 4.198 0 012.894-1.176zm-2.343 4.228c0 1.305 1.207 2.472 2.57 2.467 1.363-.006 2.564-1.24 2.584-2.592.02-1.284-1.177-2.44-2.529-2.453-1.387-.021-2.615 1.188-2.625 2.578zM5.122 69.955l.838 1.405c-.913.513-1.801 1.016-2.696 1.512a.32.32 0 01-.255 0c-1.832-.836-3.633-3.298-2.8-5.707a3.994 3.994 0 011.17-1.703 4.138 4.138 0 011.88-.914 4.197 4.197 0 012.096.114 4.11 4.11 0 011.764 1.113c1.122 1.2 1.691 2.597 1.252 4.253a1.187 1.187 0 01-.075.157l-1.485-.446c.128-.44.145-.905.05-1.354a2.824 2.824 0 00-.595-1.224c-.81-.995-2.082-1.233-3.243-.6-1.162.634-1.636 1.855-1.158 3.042.074.185.165.363.271.532.63.991.806 1.034 1.823.465l1.163-.645zM39.6 93.395c-.533-.063-1.012-.126-1.492-.172a.484.484 0 01-.336-.126.46.46 0 01-.15-.318c-.052-.299-.207-.575-.236-.883-.044-.41-.28-.516-.644-.557-.963-.11-1.922-.25-2.886-.35a.68.68 0 00-.441.203c-.106.129-.193.27-.261.421-.561.94-.561.94-1.644.766a37.918 37.918 0 00-.718-.106c.092-.162.165-.302.25-.436 1.35-2.163 2.71-4.322 4.052-6.49.169-.276.326-.396.661-.299.255.072.52.104.785.096.457-.017.63.191.753.609.744 2.488 1.52 4.964 2.286 7.445.012.065.019.13.021.197zm-3.621-6.557c-.588 1.009-1.112 1.897-1.67 2.844l2.55.31-.88-3.154zm19.564 4.419c.057-2.77.108-5.506.176-8.243 0-.113.148-.224.226-.337 0-.01.03-.011.043-.019 1.344-.618 1.346-.618 2.443.383 1.765 1.602 3.531 3.208 5.354 4.865-.567.234-1.083.461-1.613.655-.092.034-.265-.052-.355-.13-.314-.276-.589-.59-.918-.852a.574.574 0 00-.475-.088c-.973.383-1.937.782-2.892 1.198-.127.057-.186.264-.272.404-.014.02 0 .06 0 .09.005 1.602-.022 1.638-1.717 2.074zm1.742-7.108v3.166l2.211-.92-2.21-2.246zm3.27-3.38c.514-.362.956-.701 1.428-.99a.589.589 0 01.487.054c1.548.897 3.084 1.808 4.626 2.717.104.062.214.113.392.209-.31-1.374-.602-2.68-.896-3.985-.128-.574-.267-1.13-.373-1.7a.45.45 0 01.137-.382c.393-.302.807-.574 1.272-.9.237 1.045.465 2.044.688 3.045.365 1.623.718 3.254 1.097 4.871.065.285.017.454-.238.607-.392.24-.763.685-1.167.712-.404.027-.785-.373-1.177-.6-2.066-1.195-4.132-2.405-6.276-3.659zM75.467 78.9l-4.802-4.268-1.73 1.839c-.367-.325-.72-.64-1.101-.974l4.687-5.02 1.098.974-1.716 1.854 4.804 4.272-1.24 1.323zm-65.59.762l-1.095.984-3.94-4.224 5.907-5.248c.418.446.815.869 1.234 1.32l-4.8 4.27 2.694 2.898zm32.19 5.843l1.825-.14c.178 2.106.355 4.18.537 6.317l3.997-.309.125 1.436-5.824.472-.66-7.776zM55.98 13.176a1.552 1.552 0 01.066-.816 1.59 1.59 0 01.473-.675.776.776 0 01.51-.216c.12.015.263.235.306.383.306 1.066.027 2.05-.522 2.976a.485.485 0 01-.41.191.504.504 0 01-.296-.339c-.063-.497-.086-1-.127-1.504zM45.044 5.107a.686.686 0 01-.27 0c-.124-.039-.29-.117-.32-.213a.445.445 0 01.09-.404c.91-.714 1.925-1.148 3.123-.943.404.067.485.339.25.673a1.84 1.84 0 01-.673.591c-.27.14-.573.212-.88.21-.405.01-.811.05-1.32.086zm-2.489 52.855V47.627c4.667-.079 9.25-.62 13.705-1.828 0 .913.079 1.813-.013 2.695-.267 2.503-.61 4.999-.91 7.499-.048.401-.226.574-.642.679a52.46 52.46 0 01-11.928 1.313c-.053 0-.114-.011-.212-.023zm14.192-25.356a29.018 29.018 0 007.6-4.079c.428 1.093.86 2.117 1.228 3.16a31.901 31.901 0 011.509 6.413c.065.473-.01.802-.444 1.132-2.55 1.933-5.402 3.297-8.435 4.33-.075.016-.15.026-.226.03a55.049 55.049 0 00-1.232-10.986zm10.6 8.164c-.126 1.585-.197 3.08-.371 4.565a30.473 30.473 0 01-1.57 6.538 1.347 1.347 0 01-.618.756 35.484 35.484 0 01-7.503 3.317 1.63 1.63 0 01-.248.033c.038-.3.061-.575.11-.856.56-3.14.773-6.316.846-9.49a.546.546 0 01.278-.42c3.133-1.032 6.117-2.406 8.803-4.335a2.06 2.06 0 01.273-.107zM54.88 58.228c-.421 1.34-.76 2.584-1.2 3.786-.414 1.133-.944 2.224-1.404 3.344a.765.765 0 01-.29.421.799.799 0 01-.495.153c-2.89.182-5.78.396-8.67.597-.076 0-.152-.01-.264-.015v-6.948a54.086 54.086 0 0012.324-1.338zm13.465-33.895a29.197 29.197 0 013.26 7.958c.052.189.048.388-.012.574a13.654 13.654 0 01-2.966 4.548c-.13-.682-.245-1.3-.367-1.914a33.515 33.515 0 00-2.52-7.64c-.136-.295-.073-.433.129-.66.843-.94 1.652-1.905 2.476-2.866zm-.771 26.355c.322-1.637.689-3.254.954-4.898.326-1.932.423-3.895.29-5.849a.876.876 0 01.32-.796 16.41 16.41 0 002.846-3.455c.047-.076.102-.145.236-.33.082.939.182 1.754.22 2.575a28.902 28.902 0 01-.8 8.368 1.236 1.236 0 01-.166.417c-1.089 1.533-2.45 2.82-3.9 3.968zM64.1 54.917a28.457 28.457 0 01-5.15 7.43 24.043 24.043 0 01-2.854 2.581c-.53.395-1.304.475-1.961.697l-.073-.138c.33-.8.71-1.582.98-2.4.542-1.655 1.015-3.332 1.533-4.995a.602.602 0 01.318-.37 41.414 41.414 0 007.104-2.822c.01-.012.027 0 .104.017zm-2.48-38.471a30.132 30.132 0 015.426 5.89.564.564 0 01.088.45c-.478 1.235-1.312 2.232-2.295 3.202a43.009 43.009 0 00-5.348-7.862l2.129-1.68zm-1.306 46.848c.647-.785 1.308-1.55 1.928-2.349a31.548 31.548 0 004.134-7.164 1.65 1.65 0 01.51-.616c1.112-.867 2.24-1.713 3.31-2.526-.599 3.112-6.551 10.78-9.882 12.655zm-17.769 6.203v-1.319l8.483-.534c-.277.258-.467.574-.732.66a30.27 30.27 0 01-7.618 1.231.567.567 0 01-.133-.038z" fill="#FCFCFC"/></svg>