<svg xmlns="http://www.w3.org/2000/svg" width="748.974" height="457.275"><g data-name="Group 201" transform="translate(-382.003 -195.455)"><g data-name="Group 200" transform="translate(382.003 195.455)"><path data-name="Path 3120" d="M384.222 369.783l-261.831 67.424a34.622 34.622 0 01-42.114-24.866L1.097 104.842a34.622 34.622 0 0124.866-42.114L269.554.001l62.343 27.91 77.191 299.757a34.622 34.622 0 01-24.866 42.115z" fill="#f2f2f2"/><path data-name="Path 3121" d="M28.441 72.369a24.655 24.655 0 00-17.708 29.99l79.185 307.5a24.655 24.655 0 0029.99 17.708l261.831-67.423a24.655 24.655 0 0017.708-29.99L323.452 35.039 268.66 10.51z" fill="#fff"/><path data-name="Path 3122" d="M331.232 29.5L290.71 39.935a11.518 11.518 0 01-14.026-8.282l-7.707-29.929a.72.72 0 01.989-.837l61.379 27.258a.72.72 0 01-.113 1.355z" fill="#f2f2f2"/><path data-name="Path 3123" d="M309.914 292.095l-119.208 30.7a5.759 5.759 0 01-2.872-11.154l119.208-30.7a5.759 5.759 0 112.872 11.154z" fill="#ccc"/><path data-name="Path 3124" d="M337.765 304.993l-142.213 36.622a5.759 5.759 0 11-2.872-11.154l142.213-36.622a5.759 5.759 0 012.872 11.154z" fill="#ccc"/><circle data-name="Ellipse 44" cx="20.355" cy="20.355" r="20.355" transform="translate(121.697 319.055)" fill="#1457FE"/><path data-name="Path 3125" d="M297.238 238.826L138.917 279.58a17.835 17.835 0 01-21.694-12.812L84.046 137.879a17.835 17.835 0 0112.812-21.69l158.32-40.754a17.835 17.835 0 0121.694 12.812l33.178 128.889a17.835 17.835 0 01-12.812 21.69z" fill="#fff"/><path data-name="Path 3126" d="M297.238 238.826L138.917 279.58a17.835 17.835 0 01-21.694-12.812L84.046 137.879a17.835 17.835 0 0112.812-21.69l158.32-40.754a17.835 17.835 0 0121.694 12.812l33.178 128.889a17.835 17.835 0 01-12.812 21.69zM97.38 118.215a15.737 15.737 0 00-11.3 19.142l33.178 128.889a15.737 15.737 0 0019.142 11.3l158.317-40.75a15.737 15.737 0 0011.3-19.142L274.842 88.765a15.737 15.737 0 00-19.142-11.3z" fill="#e6e6e6"/><path data-name="Path 411" d="M247.146 118.769l-79.9 20.568a2.862 2.862 0 01-3.467-1.8 2.757 2.757 0 011.942-3.5l81.335-20.937c3.286 1.665 2.421 5.07.091 5.67z" fill="#f2f2f2"/><path data-name="Path 412" d="M250.751 132.78l-79.9 20.568a2.862 2.862 0 01-3.467-1.8 2.757 2.757 0 011.942-3.5l81.335-20.937c3.286 1.665 2.421 5.07.091 5.67z" fill="#f2f2f2"/><path data-name="Path 413" d="M155.633 165.778l-24.385 6.275a3.1 3.1 0 01-3.776-2.23l-7.408-28.77a3.1 3.1 0 012.23-3.776L146.679 131a3.105 3.105 0 013.776 2.23l7.408 28.777a3.1 3.1 0 01-2.23 3.776z" fill="#1457FE"/><path data-name="Path 414" d="M257.908 161.541l-121.945 31.39a2.862 2.862 0 01-3.467-1.8 2.757 2.757 0 011.942-3.5l123.38-31.76c3.286 1.665 2.421 5.07.091 5.67z" fill="#f2f2f2"/><path data-name="Path 415" d="M261.519 175.559L139.572 206.95a2.862 2.862 0 01-3.467-1.8 2.757 2.757 0 011.942-3.5l123.38-31.76c3.286 1.665 2.421 5.07.091 5.67z" fill="#f2f2f2"/><path data-name="Path 416" d="M265.123 189.571l-121.945 31.39a2.862 2.862 0 01-3.467-1.8 2.757 2.757 0 011.942-3.5l123.379-31.76c3.286 1.665 2.421 5.07.091 5.67z" fill="#f2f2f2"/><path data-name="Path 417" d="M268.733 203.589l-121.946 31.39a2.862 2.862 0 01-3.467-1.8 2.757 2.757 0 011.942-3.5l123.38-31.76c3.285 1.665 2.421 5.07.091 5.67z" fill="#f2f2f2"/><path data-name="Path 418" d="M272.339 217.6l-121.945 31.39a2.862 2.862 0 01-3.467-1.8 2.757 2.757 0 011.942-3.5l123.38-31.76c3.285 1.665 2.42 5.07.09 5.67z" fill="#f2f2f2"/><path data-name="Path 395" d="M143.554 346.545a2.111 2.111 0 01-1.335-.092l-.026-.011-5.545-2.351a2.126 2.126 0 111.664-3.913l3.593 1.528 4.708-11.076a2.125 2.125 0 012.787-1.124l-.028.072.029-.073a2.127 2.127 0 011.124 2.788l-5.539 13.023a2.126 2.126 0 01-1.431 1.224z" fill="#fff"/></g><g data-name="Group 199"><g data-name="Group 198" transform="rotate(11 -683.063 4246.276)"><path data-name="Path 3127" d="M304.956 386.7H34.583A34.622 34.622 0 010 352.114V34.583A34.622 34.622 0 0134.583 0h251.538l53.418 42.577v309.537a34.622 34.622 0 01-34.583 34.586z" fill="#e6e6e6"/><path data-name="Path 3128" d="M34.583 9.956A24.655 24.655 0 009.956 34.583v317.531a24.655 24.655 0 0024.627 24.627h270.373a24.655 24.655 0 0024.627-24.627V47.374L282.639 9.956z" fill="#fff"/><path data-name="Path 3129" d="M252.368 102.285H129.271a5.759 5.759 0 010-11.518h123.1a5.759 5.759 0 010 11.518z" fill="#1457FE"/><path data-name="Path 3130" d="M276.124 121.722H129.271a5.759 5.759 0 010-11.518h146.853a5.759 5.759 0 110 11.518z" fill="#1457FE"/><path data-name="Path 3131" d="M252.369 177.868H129.275a5.758 5.758 0 100 11.517h123.094a5.759 5.759 0 000-11.517z" fill="#ccc"/><path data-name="Path 3132" d="M276.126 197.307H129.275a5.759 5.759 0 100 11.517h146.85a5.759 5.759 0 100-11.517z" fill="#ccc"/><path data-name="Path 3133" d="M252.368 276.493H129.271a5.759 5.759 0 010-11.518h123.1a5.759 5.759 0 010 11.518z" fill="#ccc"/><path data-name="Path 3134" d="M276.124 295.929H129.271a5.759 5.759 0 010-11.518h146.853a5.759 5.759 0 110 11.518z" fill="#ccc"/><circle data-name="Ellipse 44" cx="20.355" cy="20.355" r="20.355" transform="translate(57.655 85.89)" fill="#1457FE"/><path data-name="Path 395" d="M75.994 114.009a2.111 2.111 0 01-1.27-.422l-.023-.017-4.784-3.66a2.126 2.126 0 012.587-3.374l3.1 2.376 7.32-9.552a2.125 2.125 0 012.98-.393l-.045.061.047-.063a2.127 2.127 0 01.393 2.98l-8.614 11.232a2.126 2.126 0 01-1.691.829z" fill="#fff"/><path data-name="Path 3135" d="M100.457 193.346a20.354 20.354 0 01-20.351 20.362 4.372 4.372 0 01-.524-.021 20.353 20.353 0 1120.875-20.341z" fill="#1457FE"/><circle data-name="Ellipse 44" cx="20.355" cy="20.355" r="20.355" transform="translate(57.655 260.097)" fill="#1457FE"/><path data-name="Path 3136" d="M338.499 43.948h-41.844a11.518 11.518 0 01-11.518-11.518V1.525a.72.72 0 011.167-.564l52.642 41.7a.72.72 0 01-.447 1.284z" fill="#ccc"/></g></g><path data-name="Path 3140" d="M878.098 619.408a9.158 9.158 0 01-12.587 3.05l-106.853-65.176a9.158 9.158 0 019.538-15.637l106.852 65.176a9.158 9.158 0 013.049 12.587z" fill="#3f3d56"/><path data-name="Path 3141" d="M771.245 554.237a73.265 73.265 0 11-24.4-100.7 73.265 73.265 0 0124.4 100.7zm-109.458-66.77a54.949 54.949 0 1075.524-18.3 54.949 54.949 0 00-75.524 18.3z" fill="#3f3d56"/><circle data-name="Ellipse 44" cx="57.007" cy="57.007" r="57.007" transform="rotate(19 -986.937 2230.905)" fill="#1457FE"/></g></svg>