<svg xmlns="http://www.w3.org/2000/svg" version="1.1" xmlns:xlink="http://www.w3.org/1999/xlink" xmlns:svgjs="http://svgjs.dev/svgjs" width="80" height="80"><svg width="80" height="80" viewBox="0 0 80 80" fill="none" xmlns="http://www.w3.org/2000/svg">
<rect width="80" height="80" rx="11" fill="black"></rect>
<g clip-path="url(#clip0_2054_21)">
<path d="M48.401 27.35C48.5149 27.8398 48.6041 28.2431 48.7023 28.643C48.8004 29.0429 49.0525 29.2212 49.403 29.1845C49.7532 29.1478 49.9915 28.8712 49.9619 28.4663C49.9091 27.7215 49.8533 26.9784 49.762 26.2386C49.741 26.1229 49.7492 26.0042 49.7857 25.8921C49.8224 25.78 49.8861 25.6778 49.9724 25.5937C51.3105 24.1441 52.6506 22.6927 53.968 21.2248C54.8702 20.225 55.4361 19.0836 55.2592 17.7156C55.1154 16.5942 54.5181 15.6661 53.8085 14.7963C53.5548 14.4864 53.283 14.1915 53.0152 13.8916L53.0815 13.7949C54.2781 14.4181 55.5096 14.9863 56.6622 15.6744C64.0652 20.095 68.8738 26.3385 71.0268 34.3999C71.9182 37.7788 72.1643 41.2826 71.7538 44.744C71.1059 50.536 68.729 56.0307 64.9044 60.5792C61.0795 65.128 55.9664 68.5405 50.1684 70.4144C46.8564 71.5062 43.3699 72.0419 39.8647 71.9974C35.4467 71.9341 32.1446 70.0211 29.8954 66.4371C28.5571 64.3043 27.8564 61.96 27.457 59.5254C26.6091 54.3782 27.4377 49.4611 29.6729 44.7309C29.8008 44.4576 29.9217 44.3974 30.2317 44.4723C31.5789 44.769 32.707 44.4723 33.6547 43.4362C38.4428 38.1695 43.2491 32.9169 48.0734 27.6782C48.1611 27.5832 48.2572 27.4949 48.401 27.35ZM54.9175 23.8291C55.0225 23.9574 55.0928 24.0541 55.1768 24.1457C56.8434 26.0828 58.2964 28.1778 59.5124 30.3975C59.6876 30.7041 59.6226 30.8491 59.3529 31.044C58.0699 31.969 56.6862 32.7606 55.2257 33.4052C54.5883 33.6851 53.9381 33.9433 53.2988 34.2116L52.0411 30.2459C51.768 30.5177 51.4753 30.771 51.1651 31.0041C50.9078 31.1707 50.8691 31.309 50.962 31.5889C51.3 32.5887 51.598 33.6151 51.9256 34.6732C51.3053 34.8398 50.7467 35.0064 50.1825 35.1497C48.1374 35.661 46.0487 35.999 43.941 36.1595C43.8035 36.1545 43.6679 36.1913 43.5537 36.2645C43.1385 36.686 42.748 37.1276 42.2819 37.6374C45.6431 37.539 48.974 37.0047 52.1829 36.0495C52.2013 36.0768 52.2167 36.1058 52.2285 36.1362C52.881 39.1757 53.2207 42.2685 53.243 45.3706C53.243 45.5971 53.136 45.6554 52.9361 45.7037C49.849 46.5264 46.6776 47.0291 43.4769 47.2035C42.6308 47.2534 41.7794 47.2035 40.8808 47.2035V39.2904C40.4455 39.6358 40.0529 40.0272 39.7105 40.4566C39.5619 40.6378 39.4746 40.8573 39.46 41.0867C39.4407 43.0045 39.4495 44.919 39.4495 46.8403V47.2717C39.3617 47.2819 39.2734 47.2871 39.185 47.2867C37.4017 47.1434 35.6149 47.0285 33.8351 46.8403C33.2152 46.7642 32.5858 46.7971 31.9782 46.937C31.876 46.9654 31.7898 47.0314 31.7383 47.12C31.6297 47.345 31.5526 47.585 31.4475 47.8582C34.1031 48.3731 36.757 48.568 39.4214 48.6614V57.671C36.1275 57.6189 32.8448 57.2906 29.6116 56.6896V58.0727C32.8681 58.7107 36.1369 58.9571 39.4214 59.0522V65.1142C36.7833 65.0627 34.1521 64.8355 31.5473 64.4342C31.861 64.9242 32.2056 65.3955 32.5791 65.8454C32.6798 65.9347 32.8111 65.9862 32.9487 65.9907C34.5078 66.1389 36.0668 66.2838 37.6277 66.4138C38.2215 66.4637 38.8189 66.4771 39.4232 66.5072V67.7786C38.4948 67.7069 37.5891 67.6634 36.6905 67.5603C35.7918 67.457 34.8897 67.2902 33.8876 67.137C35.3574 68.2733 36.906 69.025 38.7383 69.0983C42.9882 69.2829 47.2286 68.568 51.153 67.0054C60.9627 63.1114 67.8366 54.3418 68.8879 44.3526C69.2528 41.0634 68.9909 37.7388 68.1153 34.5382C66.6403 29.1945 63.7183 24.6806 59.4316 20.9615C58.8661 20.4733 58.2652 20.0217 57.638 19.5202C57.2139 21.2731 56.1404 22.5744 54.9175 23.8291Z" fill="#E2E8F0"></path>
<path d="M14.6459 60.1702C14.2956 59.7222 14.0083 59.3571 13.7315 58.9789C10.963 55.2189 9.13652 50.9059 8.39217 46.3702C6.11313 32.7137 13.9452 19.1636 27.2586 13.7083C30.7025 12.2817 34.3838 11.4435 38.1335 11.2322C38.3459 11.202 38.5412 11.1039 38.6871 10.9539C39.7259 9.91252 40.8592 8.99607 42.2502 8.40122C42.8354 8.14124 43.4724 8.00442 44.118 8.00011C44.7639 7.99579 45.4029 8.12408 45.992 8.37622C47.5018 8.98274 48.7158 9.95917 49.7897 11.1106C49.1451 10.729 48.5143 10.3241 47.8507 9.97417C46.8976 9.47429 45.885 9.14104 44.7691 9.21102C43.3907 9.29933 42.3568 10.0008 41.4792 10.9389C40.1498 12.3619 38.8517 13.8099 37.5204 15.2312C37.3539 15.3972 37.1325 15.5037 36.8933 15.5328C36.154 15.5995 35.4113 15.6145 34.6703 15.6478C34.1588 15.6694 33.854 15.9011 33.8522 16.271C33.8505 16.6409 34.1237 16.8525 34.6265 16.8975C35.0014 16.9325 35.3798 16.9508 35.7564 16.9791C35.7792 16.9791 35.8019 17.0041 35.8527 17.0358C35.7774 17.1291 35.7073 17.2257 35.6285 17.3124C30.8567 22.5211 26.1059 27.7482 21.2974 32.9253C20.1517 34.1583 20.0221 35.4113 20.7228 36.8127C20.898 37.1742 20.8507 37.3792 20.5949 37.6741C18.0181 40.6582 16.4082 44.096 15.436 47.8234C14.5181 51.3392 14.2728 54.9133 14.5145 58.5206C14.5321 58.7872 14.5636 59.0522 14.5846 59.3171C14.6057 59.5821 14.6249 59.8205 14.6459 60.1702Z" fill="#E2E8F0"></path>
<path d="M35.3296 21.0363C36.3035 19.3901 37.2758 17.7621 38.2322 16.1259C38.3724 15.8893 38.5248 15.9509 38.7175 16.0159C40.0153 16.4718 41.2446 17.088 42.3733 17.8488C44.7767 19.4384 46.8668 21.3296 48.4713 23.6624C48.6693 23.9523 48.8426 24.2555 49.0214 24.5571C49.0782 24.6653 49.1287 24.7766 49.1721 24.8904L44.267 28.4495C41.7215 25.5419 38.7044 23.0393 35.3296 21.0363Z" fill="#E2E8F0"></path>
<path d="M26.9189 29.9512C29.0792 33.3453 32.2973 36.0149 36.1261 37.5893C35.8423 38.0736 35.5609 38.5563 35.2817 39.0373C34.8 39.8704 34.313 40.6853 33.8488 41.5182C33.8071 41.6222 33.7275 41.7083 33.6246 41.7608C33.5216 41.8136 33.4023 41.8293 33.2883 41.8049C31.4945 41.6382 29.9336 40.9169 28.4867 39.9521C26.36 38.5357 24.5417 36.8462 23.4241 34.5734C23.2087 34.0837 23.033 33.579 22.8986 33.0637C22.8859 33.0104 22.8867 32.9549 22.9011 32.9018C22.9154 32.8488 22.9427 32.7998 22.9809 32.7588C24.2807 31.8274 25.5963 30.8909 26.9189 29.9512Z" fill="#E2E8F0"></path>
<path d="M34.5378 24.0273C34.7336 24.1024 34.9208 24.1962 35.0967 24.3073C37.0212 25.8936 38.9417 27.4843 40.8581 29.0795C41.289 29.4394 41.312 29.8076 40.9388 30.2242C40.4506 30.7707 39.9537 31.3122 39.448 31.8488C39.0766 32.242 38.6948 32.2737 38.2796 31.9304C36.3562 30.3419 34.4374 28.749 32.5233 27.1516C32.1169 26.8184 32.0959 26.4184 32.4392 26.0369C32.9315 25.4903 33.4185 24.9421 33.9317 24.4139C34.1174 24.2632 34.3207 24.1335 34.5378 24.0273Z" fill="#E2E8F0"></path>
<path d="M52.8953 18.664C52.8497 18.4265 52.87 18.1818 52.9547 17.9541C53.0391 17.7264 53.1848 17.5237 53.3771 17.366C53.4989 17.2513 53.6613 17.1841 53.8327 17.1777C53.9393 17.1911 54.0673 17.3827 54.1057 17.511C54.3791 18.4391 54.1303 19.2956 53.64 20.102C53.5977 20.1559 53.5422 20.1993 53.4785 20.2283C53.4145 20.2573 53.3443 20.2712 53.2737 20.2686C53.2084 20.2428 53.1503 20.2025 53.1044 20.1513C53.0584 20.1 53.0259 20.0392 53.0092 19.9737C52.9531 19.5405 52.9321 19.1023 52.8953 18.664Z" fill="#E2E8F0"></path>
<path d="M43.1313 11.6385C43.0515 11.6542 42.9691 11.6542 42.8894 11.6385C42.7791 11.6052 42.6301 11.5369 42.6038 11.4536C42.5874 11.3931 42.5858 11.3297 42.5999 11.2686C42.614 11.2075 42.6429 11.1504 42.6846 11.102C43.4972 10.4805 44.4031 10.1023 45.4733 10.2805C45.834 10.3389 45.9059 10.5755 45.6959 10.8671C45.5432 11.083 45.3368 11.2596 45.0952 11.3812C44.8534 11.5027 44.5836 11.5654 44.3102 11.5636C43.9475 11.5719 43.5848 11.6069 43.1313 11.6385Z" fill="#E2E8F0"></path>
<path d="M40.9087 57.6542V48.6565C45.0762 48.5883 49.1683 48.1166 53.1465 47.0654C53.1465 47.86 53.2167 48.6434 53.1343 49.4114C52.8961 51.5909 52.5895 53.7637 52.3214 55.9397C52.2794 56.2898 52.1202 56.4398 51.7487 56.5314C48.2579 57.308 44.6831 57.6917 41.0981 57.6744C41.0508 57.6744 40.9963 57.6645 40.9087 57.6542Z" fill="#E2E8F0"></path>
<path d="M53.5806 35.5791C56.0181 34.7282 58.3064 33.531 60.3669 32.0283C60.7489 32.9797 61.1342 33.8712 61.4637 34.7793C62.1096 36.5925 62.5609 38.4633 62.8107 40.363C62.8684 40.7746 62.8018 41.0613 62.4149 41.3477C60.1375 43.0306 57.5906 44.2187 54.8822 45.1186C54.8159 45.132 54.7487 45.1403 54.6807 45.1435C54.6443 41.9288 54.276 38.7253 53.5806 35.5791Z" fill="#E2E8F0"></path>
<path d="M63.0458 42.6885C62.9336 44.068 62.8706 45.3694 62.7147 46.6622C62.4649 48.6024 61.9949 50.5106 61.3132 52.3544C61.222 52.6315 61.0251 52.8661 60.7615 53.0126C58.6551 54.2222 56.4059 55.1915 54.0609 55.9C53.9884 55.915 53.9145 55.9246 53.8403 55.9285C53.8735 55.6667 53.8945 55.4286 53.9385 55.1835C54.4377 52.4494 54.6287 49.685 54.6933 46.9208C54.7019 46.8456 54.7291 46.7736 54.7721 46.7099C54.8154 46.6466 54.8735 46.5938 54.9421 46.5557C57.7397 45.6578 60.4041 44.4613 62.8023 42.7816C62.8807 42.7448 62.9621 42.7138 63.0458 42.6885Z" fill="#E2E8F0"></path>
<path d="M51.9145 57.8877C51.5381 59.0541 51.2348 60.1373 50.8426 61.1837C50.4731 62.1699 49.9998 63.1197 49.5882 64.0947C49.5485 64.2413 49.4576 64.3706 49.3303 64.4615C49.2029 64.5523 49.0467 64.5994 48.8875 64.5946C46.3072 64.7527 43.7268 64.9395 41.1465 65.1143C41.0782 65.1143 41.0099 65.1059 40.9102 65.1011V59.0525C44.6136 59.0765 48.3072 58.6855 51.9145 57.8877Z" fill="#E2E8F0"></path>
<path d="M63.9369 28.376C65.2553 30.5389 66.2363 32.8728 66.8484 35.3043C66.895 35.4685 66.8914 35.6419 66.8379 35.8042C66.2396 37.2778 65.339 38.6235 64.1893 39.7632C64.0734 39.17 63.9701 38.6318 63.8614 38.0969C63.3891 35.8031 62.6336 33.5705 61.6106 31.4452C61.4898 31.1886 61.5456 31.0686 61.7261 30.872C62.4794 30.0522 63.2011 29.2124 63.9369 28.376Z" fill="#E2E8F0"></path>
<path d="M63.249 51.3228C63.5362 49.8981 63.8637 48.4901 64.1004 47.0588C64.3915 45.3762 64.4785 43.6677 64.3597 41.9666C64.3426 41.8376 64.36 41.7064 64.4099 41.5855C64.4598 41.4645 64.5405 41.357 64.6452 41.2735C65.6321 40.3855 66.4874 39.3736 67.1868 38.2658C67.2292 38.1991 67.2781 38.1392 67.3972 37.9775C67.4707 38.7957 67.56 39.5055 67.5935 40.2204C67.7208 42.6687 67.4799 45.1215 66.8786 47.5052C66.853 47.6338 66.8032 47.7567 66.7316 47.8684C65.7591 49.2031 64.5435 50.3228 63.249 51.3228Z" fill="#E2E8F0"></path>
<path d="M60.1472 55.0024C58.9831 57.3762 57.4313 59.5592 55.5487 61.4709C54.764 62.284 53.9116 63.0357 53.0002 63.7186C52.5269 64.0619 51.8351 64.132 51.2483 64.3253L51.1836 64.2053C51.4777 63.5087 51.8177 62.8274 52.0592 62.1157C52.543 60.6744 52.9651 59.2149 53.4275 57.7669C53.4492 57.6975 53.4853 57.6331 53.5342 57.5781C53.5831 57.5227 53.6432 57.4773 53.7114 57.4453C55.9022 56.8171 58.0257 55.9941 60.0543 54.9874C60.0632 54.9775 60.0789 54.9874 60.1472 55.0024Z" fill="#E2E8F0"></path>
<path d="M57.9324 21.5098C59.7795 23.0072 61.4091 24.7319 62.7777 26.6385C62.8184 26.6951 62.8463 26.7591 62.8597 26.8265C62.8735 26.8939 62.8722 26.9632 62.8564 27.0301C62.4291 28.1048 61.6844 28.973 60.8068 29.8178C59.4835 27.3766 57.8822 25.0812 56.0317 22.9727L57.9324 21.5098Z" fill="#E2E8F0"></path>
<path d="M56.7656 62.2966C57.3436 61.6137 57.934 60.9471 58.4877 60.2521C59.9968 58.334 61.2374 56.2377 62.1784 54.0153C62.2821 53.8038 62.4383 53.6198 62.6339 53.479C63.6271 52.7241 64.6343 51.9875 65.5891 51.2793C65.0548 53.9887 59.7401 60.6655 56.7656 62.2966Z" fill="#E2E8F0"></path>
<path d="M40.8994 67.6968V66.5486L48.4741 66.084C48.2269 66.3089 48.0569 66.5838 47.8206 66.6587C45.6121 67.2968 43.3252 67.6571 41.0186 67.7301C40.9775 67.7237 40.9375 67.7125 40.8994 67.6968Z" fill="#E2E8F0"></path>
</g>
<defs>
<clipPath id="SvgjsClipPath1001">
<rect width="64" height="64" fill="white" transform="translate(8 8)"></rect>
</clipPath>
</defs>
</svg><style>@media (prefers-color-scheme: light) { :root { filter: none; } }
@media (prefers-color-scheme: dark) { :root { filter: none; } }
</style></svg>