<svg xmlns="http://www.w3.org/2000/svg" xmlns:xlink="http://www.w3.org/1999/xlink" xmlns:svgjs="http://svgjs.dev/svgjs" width="80" height="80"><svg width="80" height="80" fill="none" xmlns="http://www.w3.org/2000/svg"><rect width="80" height="80" rx="11" fill="#000"/><g clip-path="url(#clip0_2054_21)" fill="#E2E8F0"><path d="M48.401 27.35c.114.49.203.893.301 1.293.098.4.35.578.701.541.35-.036.589-.313.559-.718a42.993 42.993 0 00-.2-2.227.709.709 0 01.024-.347.736.736 0 01.186-.298c1.338-1.45 2.679-2.901 3.996-4.37.902-.999 1.468-2.14 1.291-3.508-.144-1.122-.74-2.05-1.45-2.92-.254-.31-.526-.604-.794-.904l.066-.097c1.197.623 2.429 1.191 3.581 1.88 7.403 4.42 12.212 10.663 14.365 18.725a27.721 27.721 0 01.727 10.344c-.648 5.792-3.025 11.287-6.85 15.835-3.824 4.549-8.938 7.961-14.736 9.835a31.648 31.648 0 01-10.303 1.583c-4.418-.063-7.72-1.976-9.97-5.56-1.338-2.133-2.039-4.477-2.438-6.912-.848-5.147-.02-10.064 2.216-14.794.128-.273.249-.334.559-.259 1.347.297 2.475 0 3.423-1.036 4.788-5.267 9.594-10.52 14.418-15.758.088-.095.184-.183.328-.328zm6.516-3.52c.105.127.176.224.26.316a36.413 36.413 0 014.335 6.252c.176.306.11.451-.16.646a22.794 22.794 0 01-4.126 2.361c-.638.28-1.288.538-1.927.807l-1.258-3.966a8.366 8.366 0 01-.876.758c-.257.167-.296.305-.203.585.338 1 .636 2.026.964 3.084-.62.167-1.18.333-1.744.477a37.537 37.537 0 01-6.241 1.01.673.673 0 00-.387.105c-.416.421-.806.863-1.272 1.372a38.684 38.684 0 009.9-1.587.44.44 0 01.046.086 45.5 45.5 0 011.015 9.235c0 .226-.107.284-.307.333a46.584 46.584 0 01-9.46 1.5c-.845.05-1.697 0-2.595 0V39.29a7.298 7.298 0 00-1.17 1.167c-.15.18-.236.4-.251.63-.02 1.917-.01 3.832-.01 5.753v.432c-.088.01-.177.015-.265.015-1.783-.144-3.57-.258-5.35-.447a5.368 5.368 0 00-1.857.097.4.4 0 00-.24.183c-.108.225-.185.465-.29.738 2.655.515 5.309.71 7.973.803v9.01a58.773 58.773 0 01-9.81-.981v1.383c3.257.638 6.526.884 9.81.98v6.061a59.324 59.324 0 01-7.874-.68c.314.49.659.962 1.032 1.411.1.09.232.141.37.146 1.559.148 3.118.293 4.679.423.593.05 1.19.063 1.795.093v1.272c-.928-.072-1.834-.116-2.733-.219-.898-.103-1.8-.27-2.802-.423 1.47 1.136 3.018 1.888 4.85 1.961 4.25.185 8.49-.53 12.415-2.093 9.81-3.894 16.684-12.663 17.735-22.652a26.21 26.21 0 00-.773-9.815c-1.475-5.343-4.397-9.857-8.683-13.576-.566-.489-1.167-.94-1.794-1.442-.424 1.753-1.498 3.054-2.72 4.31zM14.646 60.17c-.35-.448-.638-.813-.915-1.191-2.768-3.76-4.594-8.073-5.339-12.609-2.279-13.656 5.553-27.206 18.867-32.662a33.33 33.33 0 0110.874-2.476.96.96 0 00.554-.278C39.726 9.913 40.86 8.996 42.25 8.4a4.686 4.686 0 013.742-.025c1.51.607 2.724 1.583 3.798 2.735-.645-.382-1.276-.787-1.94-1.137-.952-.5-1.965-.833-3.08-.763-1.38.088-2.413.79-3.29 1.728-1.33 1.423-2.628 2.87-3.96 4.292a1.071 1.071 0 01-.627.302c-.739.067-1.482.082-2.223.115-.511.021-.816.253-.818.623-.002.37.272.581.775.627.374.035.753.053 1.13.081.022 0 .045.025.096.057-.076.093-.146.19-.224.276-4.772 5.21-9.523 10.436-14.332 15.613-1.145 1.233-1.275 2.486-.574 3.888.175.361.128.566-.128.861-2.577 2.984-4.187 6.422-5.159 10.15-.918 3.515-1.163 7.09-.921 10.697.017.266.049.531.07.796.02.265.04.504.06.853z"/><path d="M35.33 21.036c.974-1.646 1.946-3.274 2.902-4.91.14-.237.293-.175.486-.11a16.069 16.069 0 013.655 1.833c2.404 1.59 4.494 3.48 6.098 5.813.198.29.372.594.55.895.057.108.108.22.151.333l-4.905 3.56a36.897 36.897 0 00-8.937-7.414zm-8.411 8.915c2.16 3.394 5.378 6.064 9.207 7.638-.284.485-.565.967-.844 1.448-.482.833-.969 1.648-1.433 2.481a.47.47 0 01-.224.243.506.506 0 01-.337.044c-1.793-.167-3.354-.888-4.801-1.853-2.127-1.416-3.945-3.106-5.063-5.379-.215-.49-.391-.994-.525-1.51a.328.328 0 01.082-.304c1.3-.932 2.615-1.868 3.938-2.808zm7.619-5.924c.196.075.383.17.559.28 1.924 1.587 3.845 3.177 5.761 4.773.431.36.454.728.08 1.144a82.74 82.74 0 01-1.49 1.625c-.371.393-.753.425-1.168.081a1458.953 1458.953 0 01-5.757-4.778c-.406-.334-.427-.734-.084-1.115.492-.547.98-1.095 1.493-1.623.185-.15.389-.28.606-.387zm18.357-5.363a1.32 1.32 0 01.06-.71c.084-.228.23-.43.422-.588a.703.703 0 01.456-.188c.106.013.234.205.273.333.273.928.024 1.785-.466 2.591a.433.433 0 01-.162.126.456.456 0 01-.204.04.449.449 0 01-.17-.117.422.422 0 01-.095-.177c-.056-.433-.077-.872-.114-1.31zm-9.764-7.025a.627.627 0 01-.242 0c-.11-.034-.259-.102-.285-.185a.38.38 0 01.08-.352c.813-.622 1.72-1 2.79-.822.36.059.432.296.222.587a1.64 1.64 0 01-.6.514 1.725 1.725 0 01-.786.183c-.363.008-.725.043-1.179.075zm-2.222 46.015v-8.998c4.167-.068 8.26-.54 12.238-1.59 0 .794.07 1.577-.013 2.345-.238 2.18-.544 4.353-.813 6.529-.042.35-.2.5-.572.591a47.994 47.994 0 01-10.65 1.143c-.048 0-.103-.01-.19-.02zM53.58 35.58a26.133 26.133 0 006.787-3.552c.382.952.767 1.843 1.097 2.751a27.207 27.207 0 011.347 5.584c.057.412-.01.698-.396.985-2.277 1.683-4.824 2.87-7.533 3.77a1.332 1.332 0 01-.201.026 46.759 46.759 0 00-1.1-9.565zm9.466 7.108c-.112 1.38-.175 2.681-.331 3.974a25.96 25.96 0 01-1.402 5.692 1.179 1.179 0 01-.552.659 32.1 32.1 0 01-6.7 2.887 1.471 1.471 0 01-.22.029c.032-.262.053-.5.097-.745.5-2.735.69-5.499.755-8.263a.473.473 0 01.25-.365c2.797-.898 5.461-2.095 7.86-3.774.078-.037.16-.068.243-.093zm-11.132 15.2c-.376 1.166-.68 2.25-1.071 3.296-.37.986-.843 1.936-1.255 2.91a.666.666 0 01-.258.368.726.726 0 01-.442.133c-2.58.158-5.161.344-7.741.52-.069 0-.137-.01-.237-.014v-6.048a49.49 49.49 0 0011.005-1.165zm12.023-29.512a25.07 25.07 0 012.911 6.928.851.851 0 01-.01.5 11.865 11.865 0 01-2.649 3.96c-.116-.594-.219-1.132-.328-1.667a28.662 28.662 0 00-2.25-6.652c-.121-.256-.065-.376.115-.573.753-.82 1.475-1.66 2.21-2.496zm-.688 22.947c.287-1.425.615-2.833.851-4.264.291-1.683.379-3.391.26-5.092a.742.742 0 01.05-.381.78.78 0 01.235-.313 14.4 14.4 0 002.542-3.007c.042-.067.091-.127.21-.288.074.818.163 1.527.197 2.242a24.555 24.555 0 01-.715 7.285 1.054 1.054 0 01-.147.363c-.973 1.335-2.189 2.455-3.483 3.455zm-3.102 3.679a24.764 24.764 0 01-4.598 6.469A21.246 21.246 0 0153 63.719c-.473.343-1.165.413-1.752.606l-.064-.12c.294-.696.634-1.378.875-2.09.484-1.44.906-2.9 1.369-4.348a.545.545 0 01.284-.322 37.558 37.558 0 006.342-2.458c.01-.01.025 0 .093.015zM57.932 21.51a26.505 26.505 0 014.846 5.128.483.483 0 01.078.392c-.427 1.075-1.172 1.943-2.05 2.788a37.402 37.402 0 00-4.774-6.845l1.9-1.463zm-1.166 40.787c.578-.683 1.168-1.35 1.722-2.045a27.31 27.31 0 003.69-6.237c.104-.211.26-.395.456-.536.993-.755 2-1.492 2.955-2.2-.534 2.71-5.849 9.386-8.823 11.018zm-15.866 5.4v-1.148l7.574-.465c-.247.225-.417.5-.653.575a27.667 27.667 0 01-6.802 1.071.525.525 0 01-.12-.033z"/></g><defs><clipPath id="SvgjsClipPath1001"><path fill="#fff" transform="translate(8 8)" d="M0 0h64v64H0z"/></clipPath></defs></svg><style>@media (prefers-color-scheme:light){:root{filter:none}}@media (prefers-color-scheme:dark){:root{filter:none}}</style></svg>