<svg width="83" height="96" viewBox="0 0 83 96" fill="none" xmlns="http://www.w3.org/2000/svg">
<path d="M50.9461 23.1538C51.0736 23.7165 51.1737 24.1796 51.2835 24.639C51.3934 25.0983 51.6759 25.3031 52.0683 25.261C52.4606 25.2189 52.7274 24.9012 52.6941 24.4361C52.6352 23.5806 52.5724 22.727 52.4704 21.8772C52.4469 21.7444 52.456 21.608 52.4969 21.4793C52.5379 21.3505 52.6095 21.2331 52.7058 21.1365C54.2047 19.4714 55.7055 17.8044 57.1807 16.1182C58.1911 14.9699 58.8247 13.6589 58.6266 12.0875C58.4657 10.7995 57.7967 9.73343 57.0022 8.73437C56.7177 8.37838 56.4137 8.03962 56.1135 7.69511L56.1881 7.58411C57.528 8.29991 58.9071 8.95255 60.198 9.743C68.4886 14.8206 73.8738 21.992 76.2849 31.2515C77.2832 35.1326 77.559 39.157 77.099 43.1331C76.3734 49.7858 73.7118 56.0971 69.4284 61.3218C65.145 66.5465 59.4187 70.4665 52.9256 72.6188C49.2162 73.873 45.3116 74.4882 41.3862 74.437C36.4385 74.3643 32.7405 72.1672 30.2215 68.0503C28.7227 65.6005 27.938 62.9076 27.4907 60.1114C26.5412 54.1993 27.4691 48.5514 29.9724 43.1178C30.1156 42.8039 30.251 42.735 30.5982 42.8211C32.1068 43.1618 33.3702 42.8211 34.4316 41.6307C39.7939 35.5814 45.1764 29.5482 50.5792 23.5308C50.6773 23.4217 50.7852 23.3203 50.9461 23.1538ZM58.244 19.1097C58.3617 19.2571 58.4402 19.3681 58.5344 19.4733C60.4009 21.6983 62.028 24.1046 63.3899 26.6543C63.586 27.0065 63.5135 27.173 63.2113 27.3969C61.7744 28.4594 60.2248 29.3686 58.5893 30.1089C57.8752 30.4305 57.1474 30.7271 56.4313 31.0353L55.0227 26.4802C54.7169 26.7923 54.3891 27.0833 54.0418 27.351C53.7535 27.5424 53.7103 27.7012 53.8143 28.0228C54.1929 29.1711 54.5264 30.3501 54.8933 31.5654C54.1988 31.7568 53.573 31.9482 52.9413 32.1128C50.651 32.7001 48.3119 33.0882 45.9513 33.2726C45.7974 33.2669 45.6455 33.3091 45.5178 33.3932C45.0528 33.8774 44.6153 34.3846 44.0935 34.9703C47.8574 34.8572 51.5878 34.2435 55.1817 33.1463C55.2022 33.1776 55.2193 33.211 55.2327 33.2458C55.9635 36.7371 56.3439 40.2895 56.3685 43.8527C56.3685 44.113 56.2489 44.18 56.0252 44.2355C52.5679 45.1804 49.016 45.7579 45.4314 45.958C44.4839 46.0155 43.5305 45.958 42.524 45.958V36.8689C42.0367 37.2657 41.5971 37.7151 41.2136 38.2086C41.0472 38.4165 40.9493 38.6688 40.933 38.9321C40.9114 41.135 40.9212 43.3341 40.9212 45.5408V46.0365C40.823 46.0481 40.724 46.0539 40.625 46.0537C38.6279 45.8891 36.6268 45.7571 34.6336 45.5408C33.9393 45.4536 33.2345 45.4912 32.5541 45.6518C32.4396 45.6847 32.343 45.7604 32.2854 45.8623C32.1637 46.1207 32.0774 46.3963 31.9597 46.7102C34.9338 47.3016 37.9059 47.5255 40.8899 47.6327V57.9812C37.2009 57.9216 33.5246 57.5444 29.9037 56.8539V58.4425C33.5507 59.1755 37.2115 59.4588 40.8899 59.5679V66.5307C37.9353 66.4717 34.9887 66.2107 32.0715 65.7498C32.4228 66.3124 32.8087 66.8537 33.227 67.3709C33.3398 67.4734 33.4869 67.5325 33.641 67.5374C35.387 67.7077 37.133 67.8742 38.881 68.0235C39.546 68.081 40.215 68.0963 40.8918 68.1307V69.591C39.8521 69.5087 38.8378 69.459 37.8314 69.3403C36.825 69.2216 35.8147 69.0303 34.6925 68.8542C36.3385 70.1595 38.0727 71.0226 40.1248 71.1068C44.8844 71.3191 49.6331 70.4981 54.0281 68.703C65.0142 64.2302 72.7124 54.1572 73.8895 42.6833C74.2982 38.9055 74.0052 35.0867 73.0243 31.4104C71.3725 25.2725 68.1002 20.0877 63.2996 15.8158C62.666 15.2551 61.9931 14.7364 61.2907 14.1603C60.816 16.1737 59.6134 17.6685 58.244 19.1097Z" fill="#FCFCFC"/>
<path d="M13.1433 60.8514C12.7509 60.3366 12.4292 59.9174 12.1192 59.483C9.01873 55.1642 6.97324 50.21 6.13963 45.0004C3.58731 29.314 12.3586 13.7501 27.2683 7.4839C31.1252 5.8453 35.2479 4.88255 39.4473 4.63983C39.6852 4.60518 39.9038 4.49243 40.0672 4.32021C41.2305 3.12401 42.4998 2.07136 44.0575 1.38809C44.7128 1.08947 45.4263 0.932322 46.1495 0.927367C46.8727 0.922412 47.5885 1.06977 48.2479 1.35939C49.939 2.05605 51.2986 3.1776 52.5012 4.50012C51.7792 4.06183 51.073 3.59675 50.3294 3.19483C49.2622 2.62065 48.1283 2.23787 46.8786 2.31826C45.3347 2.41969 44.1772 3.22545 43.1943 4.30298C41.7053 5.93746 40.2516 7.60065 38.7606 9.23322C38.5742 9.42389 38.3262 9.5462 38.0583 9.57964C37.2304 9.65619 36.3986 9.67342 35.5688 9.7117C34.9959 9.73658 34.6546 10.0026 34.6526 10.4275C34.6506 10.8524 34.9567 11.0955 35.5197 11.1471C35.9395 11.1873 36.3633 11.2084 36.7851 11.2409C36.8106 11.2409 36.8361 11.2696 36.893 11.306C36.8086 11.4132 36.7302 11.5242 36.6419 11.6237C31.2979 17.6066 25.9775 23.6105 20.5923 29.5571C19.3093 30.9733 19.1641 32.4126 19.9488 34.0222C20.145 34.4375 20.092 34.6729 19.8056 35.0117C16.9198 38.4395 15.1169 42.3879 14.0281 46.6693C13.0001 50.7077 12.7254 54.813 12.9962 58.9567C13.0158 59.2629 13.0511 59.5672 13.0746 59.8715C13.0982 60.1758 13.1198 60.4495 13.1433 60.8514Z" fill="#FCFCFC"/>
<path d="M36.3069 15.9015C37.3977 14.0105 38.4865 12.1406 39.5576 10.2612C39.7145 9.98941 39.8852 10.0602 40.101 10.1349C41.5545 10.6585 42.931 11.3664 44.1953 12.2402C46.8869 14.066 49.2274 16.2383 51.0244 18.9178C51.2461 19.2508 51.4403 19.5992 51.6404 19.9456C51.7042 20.0699 51.7606 20.1977 51.8091 20.3284L46.316 24.4165C43.4653 21.0767 40.0864 18.2022 36.3069 15.9015Z" fill="#FCFCFC"/>
<path d="M26.8879 26.1396C29.3072 30.0382 32.9112 33.1047 37.1991 34.913C36.8813 35.4693 36.5661 36.0237 36.2535 36.5762C35.714 37.5332 35.1687 38.4691 34.6488 39.426C34.602 39.5452 34.5129 39.6441 34.3976 39.7045C34.2824 39.7649 34.1487 39.7829 34.021 39.7552C32.0121 39.5638 30.2641 38.7351 28.6437 37.6269C26.262 36.0001 24.2257 34.0594 22.974 31.4488C22.7327 30.8864 22.536 30.3067 22.3855 29.7148C22.3713 29.6535 22.3722 29.5898 22.3883 29.5288C22.4043 29.4679 22.4349 29.4116 22.4777 29.3646C23.9334 28.2947 25.4067 27.2191 26.8879 26.1396Z" fill="#FCFCFC"/>
<path d="M35.4204 19.337C35.6396 19.4233 35.8493 19.531 36.0462 19.6586C38.2016 21.4806 40.3524 23.3078 42.4986 25.14C42.9812 25.5534 43.0067 25.9764 42.5888 26.4549C42.0421 27.0826 41.4856 27.7047 40.9193 28.3209C40.5034 28.7726 40.0757 28.809 39.6108 28.4147C37.4567 26.5901 35.3079 24.7604 33.1643 22.9256C32.7091 22.5428 32.6856 22.0835 33.0701 21.6452C33.6214 21.0175 34.1668 20.3878 34.7416 19.7811C34.9495 19.6079 35.1773 19.4589 35.4204 19.337Z" fill="#FCFCFC"/>
<path d="M24.1609 81.7181C25.6107 82.277 26.9957 82.7918 28.3631 83.3507C28.7337 83.515 29.0717 83.7418 29.3616 84.0206C30.4956 85.079 30.1032 86.7001 28.6122 87.1958C28.5259 87.2245 28.4396 87.2608 28.3219 87.3048C28.8535 87.835 29.1929 88.4187 29.0399 89.1652C28.7966 90.3518 27.8628 91.058 26.6426 90.8016C25.5361 90.5681 24.4669 90.1547 23.3918 89.7949C22.7013 89.5633 22.0186 89.2858 21.2966 89.0121L24.1609 81.7181ZM24.206 86.568C23.9568 87.213 23.7312 87.7891 23.4958 88.3939C24.153 88.6446 24.7553 88.8972 25.3752 89.1001C25.7354 89.2415 26.121 89.3111 26.5092 89.3049C26.6545 89.2795 26.7921 89.2224 26.9116 89.1379C27.0312 89.0534 27.1297 88.9437 27.1997 88.8168C27.287 88.5232 27.2633 88.2088 27.133 87.9307C27.0018 87.7213 26.8 87.5629 26.5621 87.4828C25.8029 87.1651 25.028 86.8838 24.206 86.568ZM24.6808 85.3756C25.4655 85.6493 26.1776 85.9364 26.9211 86.1412C27.0325 86.1821 27.1512 86.2007 27.2701 86.1957C27.389 86.1908 27.5057 86.1624 27.6131 86.1124C27.7205 86.0623 27.8164 85.9916 27.895 85.9044C27.9737 85.8173 28.0334 85.7155 28.0708 85.6053C28.2434 85.1747 28.1061 84.7613 27.5823 84.5086C26.8741 84.166 26.1286 83.9038 25.3713 83.5938C25.132 84.2215 24.9142 84.7708 24.6808 85.3756Z" fill="#FCFCFC"/>
<path d="M74.5366 68.308C74.5366 65.8812 76.5671 63.7835 78.9075 63.7874C79.9931 63.7899 81.0334 64.2121 81.8005 64.9615C82.5675 65.711 82.9988 66.7264 82.9999 67.7855C82.9842 70.1779 80.9517 72.2832 78.6505 72.2832C77.5656 72.2853 76.5239 71.8683 75.7531 71.1235C74.9822 70.3786 74.5449 69.3664 74.5366 68.308ZM81.3539 68.0267C81.3539 66.7118 80.1062 65.5386 78.6859 65.5386C77.344 65.5252 76.1688 66.7003 76.1688 68.0535C76.1688 69.376 77.4715 70.5703 78.8918 70.5511C80.222 70.5262 81.3539 69.3683 81.3539 68.0267Z" fill="#FCFCFC"/>
<path d="M16.3625 77.5579C18.7677 77.5713 20.9708 79.6632 20.9413 81.9101C20.9119 84.0824 19.0384 85.9044 16.851 85.8853C14.4242 85.8642 12.2407 83.8087 12.2466 81.5503C12.2604 80.4917 12.6993 79.4805 13.4688 78.7341C14.2384 77.9876 15.2773 77.5653 16.3625 77.5579ZM14.0201 81.7857C14.0201 83.091 15.2266 84.2585 16.59 84.2527C17.9535 84.247 19.1541 83.0125 19.1737 81.6613C19.1934 80.3771 17.9967 79.221 16.645 79.2077C15.258 79.1866 14.0299 80.3962 14.0201 81.7857Z" fill="#FCFCFC"/>
<path d="M5.12202 69.9552L5.95971 71.36C5.04747 71.8729 4.15877 72.3763 3.26418 72.872C3.22404 72.8894 3.1806 72.8984 3.13666 72.8984C3.09273 72.8984 3.04929 72.8894 3.00915 72.872C1.17682 72.0356 -0.624127 69.5743 0.209643 67.1647C0.440955 66.5077 0.843746 65.9208 1.37832 65.4619C1.9129 65.003 2.56082 64.6879 3.25823 64.5477C3.95563 64.4074 4.67846 64.4469 5.35549 64.6621C6.03251 64.8774 6.64036 65.261 7.11914 65.7752C8.2413 66.9752 8.81022 68.3724 8.37078 70.0279C8.34985 70.0819 8.32493 70.1344 8.29623 70.1849L6.81114 69.7389C6.93906 69.2981 6.95628 68.8336 6.86135 68.3849C6.76642 67.9362 6.56213 67.5163 6.26575 67.1609C5.45553 66.1656 4.18427 65.9283 3.02288 66.5618C1.86149 67.1953 1.38673 68.4164 1.86541 69.603C1.93897 69.788 2.02958 69.9661 2.13614 70.1351C2.76588 71.1265 2.94245 71.1686 3.95866 70.6002L5.12202 69.9552Z" fill="#FCFCFC"/>
<path d="M39.6005 93.395C39.0669 93.3318 38.5882 93.2686 38.1076 93.2227C37.9831 93.2253 37.8625 93.1803 37.7716 93.0974C37.6807 93.0144 37.6267 92.9 37.6211 92.7787C37.57 92.4801 37.4151 92.2045 37.3856 91.8964C37.3425 91.4868 37.1051 91.3796 36.7422 91.3394C35.7789 91.2284 34.8196 91.0887 33.8563 90.9892C33.6884 91.0005 33.5309 91.0729 33.4149 91.192C33.3094 91.3206 33.2217 91.4622 33.154 91.6131C32.5929 92.5528 32.5929 92.5528 31.51 92.3787C31.2942 92.3442 31.0784 92.3136 30.792 92.2734C30.8842 92.1107 30.9568 91.971 31.0411 91.837C32.3928 89.6743 33.7524 87.5154 35.0942 85.347C35.263 85.0714 35.4199 84.9508 35.7554 85.0484C36.0103 85.1197 36.275 85.1519 36.5401 85.1441C36.9972 85.1269 37.1698 85.3355 37.2934 85.7527C38.037 88.2408 38.8138 90.7174 39.5789 93.1978C39.5906 93.263 39.5978 93.3289 39.6005 93.395ZM35.979 86.8379C35.3905 87.8465 34.8667 88.7346 34.3095 89.682L36.8599 89.992L35.979 86.8379Z" fill="#FCFCFC"/>
<path d="M55.543 91.2575C55.5999 88.4861 55.6509 85.7511 55.7195 83.0142C55.7195 82.9013 55.8667 82.7903 55.9451 82.6774C55.9451 82.6678 55.9746 82.6659 55.9883 82.6582C57.3321 82.0401 57.3341 82.0401 58.4308 83.041C60.1964 84.643 61.962 86.2487 63.7845 87.9062C63.2176 88.1397 62.7016 88.3674 62.1719 88.5608C62.0797 88.5952 61.9071 88.5091 61.8168 88.4306C61.503 88.155 61.2283 87.8411 60.8987 87.5789C60.8311 87.531 60.7535 87.4983 60.6714 87.4831C60.5894 87.4679 60.5049 87.4705 60.424 87.4909C59.4509 87.8737 58.487 88.273 57.5322 88.689C57.4047 88.7464 57.3459 88.9531 57.2596 89.0928C57.2458 89.1139 57.2596 89.1522 57.2596 89.1828C57.2654 90.7847 57.238 90.8211 55.543 91.2575ZM57.2851 84.1492V87.3148L59.496 86.3942L57.2851 84.1492Z" fill="#FCFCFC"/>
<path d="M60.5552 80.7685C61.0692 80.4068 61.5106 80.068 61.9834 79.779C62.0635 79.7525 62.1487 79.7435 62.2328 79.7528C62.3169 79.762 62.3978 79.7893 62.4699 79.8326C64.0178 80.7303 65.5539 81.6413 67.0959 82.5504C67.1998 82.6116 67.3097 82.6633 67.4882 82.759C67.1782 81.3848 66.8859 80.0795 66.5917 78.7742C66.4641 78.2001 66.3249 77.6431 66.2189 77.0747C66.2103 77.0049 66.2181 76.9341 66.2419 76.8677C66.2657 76.8013 66.3049 76.7412 66.3562 76.6919C66.7486 76.3895 67.1626 76.1177 67.6275 75.7924C67.8649 76.8374 68.0925 77.8364 68.3161 78.8374C68.681 80.4604 69.0341 82.091 69.4128 83.7083C69.4775 83.9935 69.4304 84.1619 69.1754 84.315C68.783 84.5542 68.4122 85.0002 68.0081 85.027C67.604 85.0538 67.2234 84.6538 66.831 84.4279C64.7652 83.2317 62.6994 82.0221 60.5552 80.7685Z" fill="#FCFCFC"/>
<path d="M75.4674 78.8997L70.6649 74.6317L68.9346 76.4709C68.5677 76.1456 68.2146 75.8317 67.834 75.4968L72.5208 70.4766L73.6194 71.4507L71.9028 73.3053L76.7073 77.5772L75.4674 78.8997Z" fill="#FCFCFC"/>
<path d="M9.87654 79.6619L8.78185 80.6457L4.84253 76.4216L10.7495 71.1737C11.1674 71.6196 11.5637 72.0426 11.9835 72.4943L7.18297 76.7642L9.87654 79.6619Z" fill="#FCFCFC"/>
<path d="M42.0674 85.5053L43.8919 85.3656C44.0704 87.4709 44.247 89.5456 44.4294 91.6815L48.4256 91.3734C48.4688 91.8557 48.506 92.292 48.5512 92.8088L42.7266 93.2815C42.5049 90.671 42.2891 88.1216 42.0674 85.5053Z" fill="#FCFCFC"/>
<path d="M55.9795 13.176C55.9283 12.9031 55.9512 12.622 56.0459 12.3605C56.1405 12.0989 56.3036 11.8661 56.519 11.685C56.6553 11.5532 56.8373 11.4761 57.029 11.4688C57.1487 11.4841 57.2919 11.7042 57.3351 11.8515C57.6411 12.9176 57.3625 13.9013 56.8132 14.8277C56.7659 14.8896 56.7039 14.9394 56.6324 14.9727C56.561 15.0061 56.4823 15.022 56.4032 15.0191C56.33 14.9893 56.265 14.9431 56.2136 14.8843C56.1621 14.8254 56.1256 14.7555 56.107 14.6803C56.0442 14.1827 56.0207 13.6793 55.9795 13.176Z" fill="#FCFCFC"/>
<path d="M45.0445 5.1066C44.9552 5.1246 44.863 5.1246 44.7737 5.1066C44.6501 5.06832 44.4834 4.98985 44.454 4.89416C44.4353 4.82467 44.4338 4.75186 44.4494 4.68168C44.4651 4.6115 44.4976 4.54593 44.5442 4.49032C45.4545 3.77643 46.4687 3.34198 47.6674 3.54676C48.0715 3.61375 48.152 3.88553 47.9166 4.22046C47.7458 4.46849 47.5146 4.67137 47.2439 4.81097C46.9731 4.95058 46.671 5.02256 46.3648 5.02048C45.9587 5.03005 45.5526 5.07024 45.0445 5.1066Z" fill="#FCFCFC"/>
<path d="M42.5552 57.962V47.6269C47.2223 47.5484 51.8051 47.0068 56.2604 45.7991C56.2604 46.712 56.3389 47.6115 56.2467 48.4939C55.9798 50.9973 55.6365 53.493 55.3364 55.9926C55.2893 56.3945 55.1108 56.5667 54.6949 56.672C50.7854 57.5641 46.782 58.0048 42.7671 57.985C42.7141 57.985 42.6533 57.9735 42.5552 57.962Z" fill="#FCFCFC"/>
<path d="M56.7471 32.6056C59.477 31.6283 62.0394 30.2531 64.3471 28.5271C64.7748 29.6199 65.2064 30.6439 65.5752 31.687C66.2987 33.7696 66.8042 35.9184 67.0839 38.1005C67.1486 38.5732 67.074 38.9024 66.6405 39.2316C64.0901 41.1647 61.2377 42.5293 58.2047 43.5628C58.1304 43.5782 58.055 43.5878 57.9791 43.5915C57.9383 39.899 57.5256 36.2194 56.7471 32.6056Z" fill="#FCFCFC"/>
<path d="M67.3467 40.7708C67.2211 42.3555 67.1505 43.8502 66.9759 45.3354C66.6961 47.5636 66.1698 49.7557 65.4064 51.8734C65.3041 52.1916 65.0837 52.4612 64.7885 52.6294C62.4295 54.0189 59.9108 55.1322 57.2845 55.9462C57.2031 55.9633 57.1205 55.9742 57.0374 55.9787C57.0746 55.6782 57.0982 55.4045 57.1472 55.1232C57.7063 51.9825 57.9202 48.8073 57.9928 45.6321C58.0024 45.5458 58.0326 45.463 58.081 45.3902C58.1294 45.3174 58.1946 45.2567 58.2713 45.2129C61.4043 44.1813 64.3883 42.8072 67.074 40.8779C67.162 40.8356 67.2532 40.7998 67.3467 40.7708Z" fill="#FCFCFC"/>
<path d="M54.8807 58.2285C54.4589 59.5683 54.1196 60.8123 53.6801 62.0142C53.2662 63.1473 52.7365 64.2382 52.2755 65.3578C52.231 65.5263 52.129 65.6749 51.9864 65.7793C51.8437 65.8836 51.6689 65.9375 51.4907 65.932C48.601 66.1138 45.7112 66.3282 42.8215 66.5292C42.745 66.5292 42.6685 66.5196 42.5566 66.5138V59.5663C46.7043 59.594 50.8408 59.1449 54.8807 58.2285Z" fill="#FCFCFC"/>
<path d="M68.3447 24.3329C69.8213 26.8173 70.9197 29.498 71.6052 32.2909C71.6574 32.4795 71.6533 32.6787 71.5934 32.8651C70.9233 34.5577 69.915 36.1035 68.6272 37.4126C68.4977 36.7312 68.3819 36.113 68.2603 35.4986C67.7312 32.8639 66.885 30.2994 65.7394 27.8583C65.604 27.5636 65.6668 27.4258 65.8689 27.1999C66.7124 26.2583 67.5207 25.2937 68.3447 24.3329Z" fill="#FCFCFC"/>
<path d="M67.5742 50.6878C67.896 49.0514 68.2628 47.4341 68.5277 45.7901C68.8537 43.8577 68.9511 41.8952 68.818 39.9412C68.799 39.793 68.8184 39.6425 68.8742 39.5034C68.9301 39.3644 69.0207 39.2412 69.1378 39.145C70.2432 38.125 71.2009 36.9628 71.9844 35.6904C72.0314 35.6138 72.0864 35.5449 72.2198 35.3593C72.3022 36.299 72.4022 37.1143 72.4395 37.9354C72.582 40.7475 72.3125 43.5651 71.6391 46.303C71.6102 46.4506 71.5544 46.5919 71.4743 46.7202C70.3855 48.2533 69.024 49.5394 67.5742 50.6878Z" fill="#FCFCFC"/>
<path d="M64.1006 54.9167C62.797 57.6431 61.0588 60.1508 58.9508 62.3466C58.0718 63.2804 57.1172 64.1437 56.0964 64.9284C55.5667 65.3227 54.7918 65.4031 54.1346 65.6251L54.062 65.4873C54.3916 64.6873 54.7722 63.9045 55.0429 63.0872C55.5844 61.4317 56.0572 59.7551 56.5751 58.0919C56.5993 58.0124 56.64 57.9385 56.6946 57.875C56.7493 57.8114 56.8168 57.7596 56.8929 57.7225C59.3464 57.0011 61.7247 56.0559 63.9966 54.8995C64.0064 54.888 64.0241 54.8995 64.1006 54.9167Z" fill="#FCFCFC"/>
<path d="M61.6198 16.4456C63.6886 18.1655 65.5134 20.1466 67.0461 22.3366C67.0917 22.4016 67.1231 22.4751 67.1382 22.5525C67.1534 22.6299 67.1521 22.7095 67.1344 22.7863C66.6557 24.0208 65.822 25.018 64.8391 25.9883C63.3569 23.1844 61.5636 20.5478 59.4912 18.126L61.6198 16.4456Z" fill="#FCFCFC"/>
<path d="M60.3137 63.2936C60.9611 62.5089 61.6222 61.7433 62.2422 60.9452C63.9324 58.7421 65.3219 56.334 66.3757 53.7814C66.4917 53.5385 66.6668 53.327 66.8858 53.1652C67.9981 52.2982 69.1262 51.4522 70.1954 50.6388C69.597 53.7508 63.6449 61.4199 60.3137 63.2936Z" fill="#FCFCFC"/>
<path d="M42.5449 69.4967V68.178L51.0278 67.644C50.7512 67.9024 50.5609 68.2182 50.296 68.3043C47.8228 69.0373 45.2618 69.4511 42.6783 69.535C42.6324 69.5277 42.5876 69.5149 42.5449 69.4967Z" fill="#FCFCFC"/>
</svg>
